<svg xmlns="http://www.w3.org/2000/svg" width="472" height="364" fill="none" viewBox="0 0 472 364">
    <g clip-path="url(#clip0)">
        <g clip-path="url(#clip1)">
            <path fill="#FFE3F6" d="M0 0H474V364H0z"/>
            <path stroke="#E535AB" stroke-width="2" d="M196.563-204.35c-97.113-30.73-151.56 23.224-171.682 84.611C4.759-58.352 31.098 25.367 15.72 84.206c-15.378 58.84-73.846 87.717-73.846 87.717" opacity=".06"/>
            <path stroke="#E535AB" stroke-width="2" d="M209.36-87.192C112.247-117.92 57.8-63.968 37.678-2.58c-20.122 61.387 6.217 145.105-9.16 203.945-15.378 58.839-73.846 87.716-73.846 87.716" opacity=".06"/>
            <path stroke="#E535AB" stroke-width="2" d="M183.413-102.658C84.228-88.751 45.674-13.65 41.357 53.295 37.039 120.24 82 187.745 81.559 250.182c-.442 62.436-48.806 115.606-48.806 115.606M710.594-156.869c-148.856-47.102-232.313 35.598-263.156 129.693-30.843 94.095 9.53 222.42-14.041 312.609-23.571 90.19-113.191 134.452-113.191 134.452" opacity=".06"/>
            <path stroke="#E535AB" stroke-width="2" d="M630.563 41.307c-97.113-30.73-151.56 23.224-171.682 84.611-20.122 61.387 6.217 145.106-9.161 203.945-15.377 58.84-73.845 87.717-73.845 87.717" opacity=".06"/>
        </g>
        <path fill="#E535AB" d="M144.223 250h-4.242v-20.65h6.748l6.916 19.082-.728.182V229.35h4.228V250h-6.79l-6.916-19.026.784-.182V250zm23.782.322c-1.605 0-3.019-.331-4.242-.994-1.222-.663-2.179-1.573-2.87-2.73-.681-1.167-1.022-2.511-1.022-4.032 0-1.512.341-2.847 1.022-4.004.691-1.167 1.648-2.072 2.87-2.716 1.223-.653 2.637-.98 4.242-.98 1.606 0 3.02.327 4.242.98 1.223.644 2.175 1.549 2.856 2.716.691 1.157 1.036 2.492 1.036 4.004 0 1.521-.345 2.865-1.036 4.032-.681 1.157-1.633 2.067-2.856 2.73-1.222.663-2.636.994-4.242.994zm0-3.444c.756 0 1.414-.177 1.974-.532.56-.355.994-.854 1.302-1.498.308-.653.462-1.414.462-2.282 0-.868-.154-1.619-.462-2.254-.308-.644-.742-1.139-1.302-1.484s-1.218-.518-1.974-.518c-.746 0-1.404.173-1.974.518-.56.345-.994.84-1.302 1.484-.308.635-.462 1.386-.462 2.254 0 .868.154 1.629.462 2.282.308.644.742 1.143 1.302 1.498.57.355 1.228.532 1.974.532zm17.061 3.458c-1.241 0-2.384-.294-3.43-.882-1.045-.597-1.885-1.479-2.52-2.646-.634-1.167-.952-2.604-.952-4.312 0-1.633.322-3.019.966-4.158.654-1.139 1.503-2.002 2.548-2.59 1.055-.597 2.184-.896 3.388-.896 1.176 0 2.25.299 3.22.896.98.597 1.764 1.414 2.352 2.45.588 1.027.882 2.212.882 3.556v.266l-1.876.028v-.084-.098c0-.7-.168-1.302-.504-1.806-.336-.504-.77-.891-1.302-1.162-.532-.28-1.087-.42-1.666-.42-.961 0-1.792.322-2.492.966-.7.635-1.05 1.652-1.05 3.052 0 1.4.35 2.431 1.05 3.094.71.653 1.54.98 2.492.98.598 0 1.162-.14 1.694-.42.532-.289.962-.695 1.288-1.218.327-.523.49-1.139.49-1.848l1.876.098c0 1.335-.289 2.543-.868 3.626-.569 1.073-1.344 1.932-2.324 2.576-.97.635-2.058.952-3.262.952zm4.578-.336v-21.882h4.354V250h-4.354zm9.329-6.132v-2.87h9.856l-.42.728v-.21-.21c0-.532-.126-1.041-.378-1.526-.252-.495-.644-.896-1.176-1.204-.522-.317-1.194-.476-2.016-.476-.821 0-1.53.177-2.128.532-.588.345-1.04.845-1.358 1.498-.308.653-.462 1.442-.462 2.366 0 .952.15 1.769.448 2.45.308.672.761 1.19 1.358 1.554.607.364 1.358.546 2.254.546.579 0 1.078-.051 1.498-.154.42-.112.761-.252 1.022-.42.271-.168.476-.355.616-.56.14-.205.224-.406.252-.602h4.284c-.056.625-.27 1.241-.644 1.848-.373.597-.891 1.139-1.554 1.624-.662.476-1.47.854-2.422 1.134-.942.28-2.02.42-3.234.42-1.642 0-3.075-.327-4.298-.98-1.222-.663-2.17-1.573-2.842-2.73-.672-1.167-1.008-2.511-1.008-4.032 0-1.54.341-2.889 1.022-4.046.691-1.167 1.648-2.072 2.87-2.716 1.232-.653 2.656-.98 4.27-.98 1.652 0 3.08.331 4.284.994 1.204.653 2.133 1.573 2.786 2.758.654 1.176.98 2.548.98 4.116 0 .233-.004.457-.014.672-.009.215-.023.373-.042.476h-13.804zm25.995-11.158l1.96-2.072v8.554l-.98-1.232h7.616v3.36h-7.616l.98-1.232v8.624l-1.96-2.072h10.15V250H222.56v-20.65h12.558v3.36h-10.15zm17.943 9.1l-.042 1.946-6.174-8.624h4.718l4.438 6.608-2.604-.028 4.41-6.58h4.634l-5.922 8.078-.21-1.974 6.188 8.764h-4.746l-4.536-6.636 2.94-.14-4.928 6.776h-4.634l6.468-8.19zm11.517 14.308v-20.986h4.354v20.986h-4.354zm8.946-5.782c-1.176 0-2.254-.313-3.234-.938-.98-.635-1.764-1.484-2.352-2.548-.588-1.073-.882-2.277-.882-3.612v-.098-.126l1.876-.042v.168c0 .691.168 1.297.504 1.82.336.513.77.91 1.302 1.19.532.28 1.088.42 1.666.42.952 0 1.778-.327 2.478-.98.71-.663 1.064-1.694 1.064-3.094s-.35-2.417-1.05-3.052c-.7-.644-1.53-.966-2.492-.966-.578 0-1.134.14-1.666.42-.532.271-.966.658-1.302 1.162-.336.504-.504 1.106-.504 1.806l-1.876-.112c0-1.344.294-2.529.882-3.556.588-1.036 1.372-1.853 2.352-2.45.98-.597 2.058-.896 3.234-.896 1.204 0 2.329.299 3.374.896 1.046.588 1.89 1.451 2.534 2.59.654 1.139.98 2.525.98 4.158 0 1.708-.317 3.145-.952 4.312-.634 1.167-1.474 2.049-2.52 2.646-1.045.588-2.184.882-3.416.882zm9.593-.336v-14.868h4.354v5.124l-.896-.56c.103-.7.29-1.344.56-1.932.271-.588.621-1.097 1.05-1.526.43-.439.938-.779 1.526-1.022.598-.243 1.279-.364 2.044-.364.598 0 1.064.047 1.4.14.346.084.56.149.644.196l-.714 3.892c-.084-.047-.27-.121-.56-.224-.289-.103-.662-.154-1.12-.154-.746 0-1.372.126-1.876.378-.504.252-.91.588-1.218 1.008-.298.411-.513.868-.644 1.372-.13.504-.196 1.013-.196 1.526V250h-4.354zm14.272-6.132v-2.87h9.856l-.42.728v-.21-.21c0-.532-.126-1.041-.378-1.526-.252-.495-.644-.896-1.176-1.204-.523-.317-1.195-.476-2.016-.476s-1.531.177-2.128.532c-.588.345-1.041.845-1.358 1.498-.308.653-.462 1.442-.462 2.366 0 .952.149 1.769.448 2.45.308.672.761 1.19 1.358 1.554.607.364 1.358.546 2.254.546.579 0 1.078-.051 1.498-.154.42-.112.761-.252 1.022-.42.271-.168.476-.355.616-.56.14-.205.224-.406.252-.602h4.284c-.056.625-.271 1.241-.644 1.848-.373.597-.891 1.139-1.554 1.624-.663.476-1.47.854-2.422 1.134-.943.28-2.021.42-3.234.42-1.643 0-3.075-.327-4.298-.98-1.223-.663-2.17-1.573-2.842-2.73-.672-1.167-1.008-2.511-1.008-4.032 0-1.54.341-2.889 1.022-4.046.691-1.167 1.647-2.072 2.87-2.716 1.232-.653 2.655-.98 4.27-.98 1.652 0 3.08.331 4.284.994 1.204.653 2.133 1.573 2.786 2.758.653 1.176.98 2.548.98 4.116 0 .233-.005.457-.014.672-.009.215-.023.373-.042.476h-13.804zm22.76 6.468c-.886 0-1.74-.103-2.562-.308-.821-.205-1.558-.509-2.212-.91-.644-.401-1.157-.901-1.54-1.498-.373-.607-.56-1.311-.56-2.114v-.126-.126h4.312v.196c0 .541.238.938.714 1.19.486.252 1.139.378 1.96.378.43 0 .84-.042 1.232-.126.402-.093.728-.238.98-.434.262-.205.392-.462.392-.77 0-.495-.275-.845-.826-1.05-.541-.205-1.414-.411-2.618-.616-.681-.112-1.372-.271-2.072-.476-.7-.205-1.344-.476-1.932-.812-.588-.345-1.059-.779-1.414-1.302-.354-.532-.532-1.176-.532-1.932 0-1.008.304-1.857.91-2.548.616-.691 1.433-1.213 2.45-1.568 1.018-.355 2.138-.532 3.36-.532 1.167 0 2.254.196 3.262.588 1.008.383 1.825.938 2.45 1.666.626.719.938 1.587.938 2.604v.196h-4.27v-.098-.07c0-.373-.121-.677-.364-.91-.233-.233-.532-.406-.896-.518-.364-.121-.742-.182-1.134-.182-.354 0-.723.042-1.106.126-.373.075-.69.205-.952.392-.261.177-.392.429-.392.756 0 .317.14.579.42.784.28.196.672.359 1.176.49.504.121 1.088.238 1.75.35.626.103 1.284.247 1.974.434.7.177 1.354.434 1.96.77.616.327 1.111.761 1.484 1.302.383.532.574 1.209.574 2.03 0 .849-.196 1.577-.588 2.184-.392.607-.924 1.101-1.596 1.484-.662.373-1.404.649-2.226.826-.812.187-1.647.28-2.506.28zm15.805 0c-.887 0-1.741-.103-2.562-.308-.821-.205-1.559-.509-2.212-.91-.644-.401-1.157-.901-1.54-1.498-.373-.607-.56-1.311-.56-2.114v-.126-.126h4.312v.196c0 .541.238.938.714 1.19.485.252 1.139.378 1.96.378.429 0 .84-.042 1.232-.126.401-.093.728-.238.98-.434.261-.205.392-.462.392-.77 0-.495-.275-.845-.826-1.05-.541-.205-1.414-.411-2.618-.616-.681-.112-1.372-.271-2.072-.476-.7-.205-1.344-.476-1.932-.812-.588-.345-1.059-.779-1.414-1.302-.355-.532-.532-1.176-.532-1.932 0-1.008.303-1.857.91-2.548.616-.691 1.433-1.213 2.45-1.568 1.017-.355 2.137-.532 3.36-.532 1.167 0 2.254.196 3.262.588 1.008.383 1.825.938 2.45 1.666.625.719.938 1.587.938 2.604v.196h-4.27v-.098-.07c0-.373-.121-.677-.364-.91-.233-.233-.532-.406-.896-.518-.364-.121-.742-.182-1.134-.182-.355 0-.723.042-1.106.126-.373.075-.691.205-.952.392-.261.177-.392.429-.392.756 0 .317.14.579.42.784.28.196.672.359 1.176.49.504.121 1.087.238 1.75.35.625.103 1.283.247 1.974.434.7.177 1.353.434 1.96.77.616.327 1.111.761 1.484 1.302.383.532.574 1.209.574 2.03 0 .849-.196 1.577-.588 2.184-.392.607-.924 1.101-1.596 1.484-.663.373-1.405.649-2.226.826-.812.187-1.647.28-2.506.28zm-211.496 32c-1.633 0-3.122-.406-4.466-1.218-1.334-.821-2.398-2.016-3.192-3.584-.784-1.577-1.176-3.514-1.176-5.81 0-2.287.416-4.223 1.246-5.81.831-1.587 1.946-2.795 3.346-3.626 1.41-.831 2.982-1.246 4.718-1.246 1.447 0 2.67.233 3.668.7 1.008.467 1.825 1.064 2.45 1.792.635.728 1.097 1.498 1.386 2.31.29.803.434 1.545.434 2.226v.168h-4.228v-.084-.084c0-.429-.079-.854-.238-1.274-.158-.429-.396-.812-.714-1.148-.308-.336-.695-.607-1.162-.812-.457-.205-.989-.308-1.596-.308-.821 0-1.605.233-2.352.7-.746.467-1.358 1.227-1.834 2.282-.476 1.045-.714 2.45-.714 4.214 0 1.344.131 2.473.392 3.388.271.915.63 1.647 1.078 2.198.448.541.957.933 1.526 1.176.579.243 1.176.364 1.792.364.85 0 1.559-.14 2.128-.42.579-.289 1.032-.644 1.358-1.064.327-.42.537-.835.63-1.246v-1.344H114.7v-3.136h7.938V282h-2.282l-.392-2.282c-.074.177-.233.411-.476.7-.242.289-.588.583-1.036.882-.438.289-1.003.532-1.694.728-.681.205-1.498.308-2.45.308zm11.81-.336v-14.868h4.354v5.124l-.896-.56c.102-.7.289-1.344.56-1.932.27-.588.62-1.097 1.05-1.526.429-.439.938-.779 1.526-1.022.597-.243 1.278-.364 2.044-.364.597 0 1.064.047 1.4.14.345.084.56.149.644.196l-.714 3.892c-.084-.047-.271-.121-.56-.224-.29-.103-.663-.154-1.12-.154-.747 0-1.372.126-1.876.378-.504.252-.91.588-1.218 1.008-.299.411-.514.868-.644 1.372-.131.504-.196 1.013-.196 1.526V282h-4.354zm17.645.308c-1.082 0-2.048-.173-2.898-.518-.84-.345-1.498-.845-1.974-1.498s-.714-1.447-.714-2.38c0-1.055.29-1.913.868-2.576.579-.663 1.344-1.167 2.296-1.512.962-.355 2.002-.588 3.122-.7 1.634-.159 2.758-.303 3.374-.434.626-.131.938-.359.938-.686v-.028c0-.551-.266-.985-.798-1.302-.522-.317-1.255-.476-2.198-.476-.998 0-1.764.182-2.296.546-.522.355-.784.901-.784 1.638h-4.27c0-1.195.322-2.203.966-3.024.654-.821 1.536-1.442 2.646-1.862 1.111-.429 2.366-.644 3.766-.644 1.307 0 2.516.201 3.626.602 1.111.392 2.002.985 2.674 1.778.682.793 1.022 1.801 1.022 3.024v6.426c0 .383.01.751.028 1.106.028.345.084.663.168.952.094.327.21.597.35.812.14.215.257.364.35.448h-4.27c-.065-.065-.168-.201-.308-.406-.13-.205-.242-.443-.336-.714-.112-.327-.196-.653-.252-.98-.046-.336-.07-.728-.07-1.176l.896.616c-.261.616-.686 1.148-1.274 1.596-.578.439-1.269.779-2.072 1.022-.793.233-1.652.35-2.576.35zm1.162-3.248c.682 0 1.316-.121 1.904-.364.598-.252 1.083-.644 1.456-1.176.374-.532.56-1.227.56-2.086v-1.498l1.078 1.05c-.616.224-1.33.411-2.142.56-.802.14-1.605.252-2.408.336-.952.093-1.666.257-2.142.49-.466.224-.7.607-.7 1.148 0 .513.201.901.602 1.162.402.252.999.378 1.792.378zm11.38 9.058v-20.986h4.354v20.986h-4.354zm8.946-5.782c-1.176 0-2.254-.313-3.234-.938-.98-.635-1.764-1.484-2.352-2.548-.588-1.073-.882-2.277-.882-3.612v-.098-.126l1.876-.042v.168c0 .691.168 1.297.504 1.82.336.513.77.91 1.302 1.19.532.28 1.088.42 1.666.42.952 0 1.778-.327 2.478-.98.71-.663 1.064-1.694 1.064-3.094s-.35-2.417-1.05-3.052c-.7-.644-1.53-.966-2.492-.966-.578 0-1.134.14-1.666.42-.532.271-.966.658-1.302 1.162-.336.504-.504 1.106-.504 1.806l-1.876-.112c0-1.344.294-2.529.882-3.556.588-1.036 1.372-1.853 2.352-2.45.98-.597 2.058-.896 3.234-.896 1.204 0 2.329.299 3.374.896 1.046.588 1.89 1.451 2.534 2.59.654 1.139.98 2.525.98 4.158 0 1.708-.317 3.145-.952 4.312-.634 1.167-1.474 2.049-2.52 2.646-1.045.588-2.184.882-3.416.882zm20.065-.336v-5.292-.77-.994-.812c0-1.139-.205-2.016-.616-2.632-.41-.625-1.162-.938-2.254-.938-.709 0-1.306.145-1.792.434-.485.28-.854.677-1.106 1.19-.242.513-.364 1.115-.364 1.806l-1.26-.868c0-1.241.266-2.329.798-3.262.532-.943 1.265-1.68 2.198-2.212.943-.532 2.03-.798 3.262-.798 1.82 0 3.188.537 4.102 1.61.915 1.064 1.372 2.548 1.372 4.452V282h-4.34zm-10.472 0v-21.882h4.34V282h-4.34zm24.837-.196h3.696c0 .448.154.821.462 1.12.318.308.696.551 1.134.728.439.177.854.308 1.246.392.402.084.677.135.826.154l-1.232 2.898c-.14-.009-.438-.056-.896-.14-.448-.075-.97-.215-1.568-.42-.588-.205-1.162-.504-1.722-.896-.56-.383-1.026-.887-1.4-1.512-.364-.625-.546-1.4-.546-2.324zm1.96.532c-1.288 0-2.492-.233-3.612-.7-1.12-.467-2.104-1.153-2.954-2.058-.849-.905-1.516-2.021-2.002-3.346-.485-1.335-.728-2.861-.728-4.578 0-1.727.238-3.248.714-4.564.486-1.325 1.153-2.436 2.002-3.332.85-.896 1.834-1.573 2.954-2.03 1.12-.457 2.329-.686 3.626-.686 1.288 0 2.492.229 3.612.686 1.13.457 2.119 1.134 2.968 2.03.85.896 1.512 2.007 1.988 3.332.476 1.316.714 2.837.714 4.564 0 1.717-.242 3.243-.728 4.578-.476 1.325-1.143 2.441-2.002 3.346-.849.905-1.838 1.591-2.968 2.058-1.12.467-2.314.7-3.584.7zm0-3.486c.868 0 1.671-.238 2.408-.714.747-.476 1.344-1.241 1.792-2.296.448-1.064.672-2.459.672-4.186 0-1.736-.228-3.127-.686-4.172-.448-1.045-1.04-1.797-1.778-2.254-.737-.467-1.54-.7-2.408-.7-.868 0-1.675.233-2.422.7-.737.457-1.33 1.209-1.778 2.254-.448 1.045-.672 2.436-.672 4.172 0 1.736.224 3.131.672 4.186.448 1.055 1.041 1.82 1.778 2.296.747.476 1.554.714 2.422.714zm12.155 3.15v-20.65h4.354v19.348l-1.96-2.24h9.646V282h-12.04zm35.472-17.29h-6.818l1.736-2.072V282h-4.326v-19.362l1.792 2.072h-6.86v-3.36h14.476v3.36zm2.328 11.158v-2.87h9.856l-.42.728v-.21-.21c0-.532-.126-1.041-.378-1.526-.252-.495-.644-.896-1.176-1.204-.522-.317-1.194-.476-2.016-.476-.821 0-1.53.177-2.128.532-.588.345-1.04.845-1.358 1.498-.308.653-.462 1.442-.462 2.366 0 .952.15 1.769.448 2.45.308.672.761 1.19 1.358 1.554.607.364 1.358.546 2.254.546.579 0 1.078-.051 1.498-.154.42-.112.761-.252 1.022-.42.271-.168.476-.355.616-.56.14-.205.224-.406.252-.602h4.284c-.056.625-.27 1.241-.644 1.848-.373.597-.891 1.139-1.554 1.624-.662.476-1.47.854-2.422 1.134-.942.28-2.02.42-3.234.42-1.642 0-3.075-.327-4.298-.98-1.222-.663-2.17-1.573-2.842-2.73-.672-1.167-1.008-2.511-1.008-4.032 0-1.54.341-2.889 1.022-4.046.691-1.167 1.648-2.072 2.87-2.716 1.232-.653 2.656-.98 4.27-.98 1.652 0 3.08.331 4.284.994 1.204.653 2.133 1.573 2.786 2.758.654 1.176.98 2.548.98 4.116 0 .233-.004.457-.014.672-.009.215-.023.373-.042.476h-13.804zM277.451 282v-5.754-1.428-1.022c0-.383-.024-.761-.07-1.134-.038-.373-.131-.719-.28-1.036-.14-.327-.36-.583-.658-.77-.299-.196-.705-.294-1.218-.294-.476 0-.887.103-1.232.308-.346.196-.63.471-.854.826-.215.345-.374.747-.476 1.204-.103.448-.154.919-.154 1.414l-1.19-.98c0-1.26.228-2.375.686-3.346.457-.98 1.106-1.745 1.946-2.296.849-.56 1.852-.84 3.01-.84 1.241 0 2.207.266 2.898.798.7.523 1.19 1.223 1.47 2.1.289.868.434 1.829.434 2.884V282h-4.312zm-9.282 0v-14.868h4.34V282h-4.34zm18.522 0v-5.74-1.47-1.022c0-.411-.024-.803-.07-1.176-.047-.383-.145-.728-.294-1.036-.15-.308-.374-.551-.672-.728-.299-.177-.705-.266-1.218-.266-.476 0-.887.103-1.232.308-.336.196-.612.467-.826.812-.215.345-.374.737-.476 1.176-.094.439-.14.896-.14 1.372l-1.19-.966c0-1.241.224-2.343.672-3.304.457-.961 1.101-1.717 1.932-2.268.84-.56 1.843-.84 3.01-.84 1.213 0 2.17.257 2.87.77.709.513 1.213 1.199 1.512 2.058.308.849.462 1.801.462 2.856V282h-4.34zm7.591 6.118v-20.986h4.354v20.986h-4.354zm8.946-5.782c-1.176 0-2.254-.313-3.234-.938-.98-.635-1.764-1.484-2.352-2.548-.588-1.073-.882-2.277-.882-3.612v-.098-.126l1.876-.042v.168c0 .691.168 1.297.504 1.82.336.513.77.91 1.302 1.19.532.28 1.087.42 1.666.42.952 0 1.778-.327 2.478-.98.709-.663 1.064-1.694 1.064-3.094s-.35-2.417-1.05-3.052c-.7-.644-1.531-.966-2.492-.966-.579 0-1.134.14-1.666.42-.532.271-.966.658-1.302 1.162-.336.504-.504 1.106-.504 1.806l-1.876-.112c0-1.344.294-2.529.882-3.556.588-1.036 1.372-1.853 2.352-2.45.98-.597 2.058-.896 3.234-.896 1.204 0 2.329.299 3.374.896 1.045.588 1.89 1.451 2.534 2.59.653 1.139.98 2.525.98 4.158 0 1.708-.317 3.145-.952 4.312-.635 1.167-1.475 2.049-2.52 2.646-1.045.588-2.184.882-3.416.882zm14.087-22.218V282h-4.284v-21.882h4.284zm8.503 22.19c-1.083 0-2.049-.173-2.898-.518-.84-.345-1.498-.845-1.974-1.498s-.714-1.447-.714-2.38c0-1.055.289-1.913.868-2.576s1.344-1.167 2.296-1.512c.961-.355 2.002-.588 3.122-.7 1.633-.159 2.758-.303 3.374-.434.625-.131.938-.359.938-.686v-.028c0-.551-.266-.985-.798-1.302-.523-.317-1.255-.476-2.198-.476-.999 0-1.764.182-2.296.546-.523.355-.784.901-.784 1.638h-4.27c0-1.195.322-2.203.966-3.024.653-.821 1.535-1.442 2.646-1.862 1.111-.429 2.366-.644 3.766-.644 1.307 0 2.515.201 3.626.602 1.111.392 2.002.985 2.674 1.778.681.793 1.022 1.801 1.022 3.024v6.426c0 .383.009.751.028 1.106.028.345.084.663.168.952.093.327.21.597.35.812.14.215.257.364.35.448h-4.27c-.065-.065-.168-.201-.308-.406-.131-.205-.243-.443-.336-.714-.112-.327-.196-.653-.252-.98-.047-.336-.07-.728-.07-1.176l.896.616c-.261.616-.686 1.148-1.274 1.596-.579.439-1.269.779-2.072 1.022-.793.233-1.652.35-2.576.35zm1.162-3.248c.681 0 1.316-.121 1.904-.364.597-.252 1.083-.644 1.456-1.176.373-.532.56-1.227.56-2.086v-1.498l1.078 1.05c-.616.224-1.33.411-2.142.56-.803.14-1.605.252-2.408.336-.952.093-1.666.257-2.142.49-.467.224-.7.607-.7 1.148 0 .513.201.901.602 1.162.401.252.999.378 1.792.378zm18.36 3.248c-.569 0-1.157-.051-1.764-.154-.597-.093-1.157-.285-1.68-.574-.513-.299-.929-.733-1.246-1.302-.317-.569-.476-1.321-.476-2.254v-.63-6.902h-3.43v-3.36h.966c.56 0 1.003-.023 1.33-.07.336-.047.583-.163.742-.35.168-.196.275-.499.322-.91.047-.411.07-.975.07-1.694v-1.876h4.354v4.9h4.326v3.36h-4.326v6.3c0 .644.075 1.167.224 1.568.159.401.546.602 1.162.602.308 0 .597-.028.868-.084.28-.056.49-.112.63-.168v3.262c-.196.084-.471.159-.826.224-.355.075-.77.112-1.246.112zm7.456-6.44v-2.87h9.856l-.42.728v-.21-.21c0-.532-.126-1.041-.378-1.526-.252-.495-.644-.896-1.176-1.204-.523-.317-1.195-.476-2.016-.476-.822 0-1.531.177-2.128.532-.588.345-1.041.845-1.358 1.498-.308.653-.462 1.442-.462 2.366 0 .952.149 1.769.448 2.45.308.672.76 1.19 1.358 1.554.606.364 1.358.546 2.254.546.578 0 1.078-.051 1.498-.154.42-.112.76-.252 1.022-.42.27-.168.476-.355.616-.56.14-.205.224-.406.252-.602h4.284c-.056.625-.271 1.241-.644 1.848-.374.597-.892 1.139-1.554 1.624-.663.476-1.47.854-2.422 1.134-.943.28-2.021.42-3.234.42-1.643 0-3.076-.327-4.298-.98-1.223-.663-2.17-1.573-2.842-2.73-.672-1.167-1.008-2.511-1.008-4.032 0-1.54.34-2.889 1.022-4.046.69-1.167 1.647-2.072 2.87-2.716 1.232-.653 2.655-.98 4.27-.98 1.652 0 3.08.331 4.284.994 1.204.653 2.132 1.573 2.786 2.758.653 1.176.98 2.548.98 4.116 0 .233-.005.457-.014.672-.01.215-.024.373-.042.476h-13.804zM178.729 173.441l5.248 3.03 58.454-101.244-5.247-3.03-58.455 101.244z"/>
        <path fill="#E535AB" d="M294.437 165.353h-116.91v6.059h116.91v-6.059z"/>
        <path fill="#E535AB" d="M179.838 168.757l58.476 33.762 3.03-5.247-58.477-33.762-3.029 5.247zM230.637 80.763l58.476 33.763 3.03-5.248-58.477-33.762-3.029 5.247z"/>
        <path fill="#E535AB" d="M179.857 109.255l3.03 5.248 58.476-33.763-3.029-5.247-58.477 33.762z"/>
        <path fill="#E535AB" d="M229.582 75.228l58.455 101.244 5.247-3.03-58.455-101.243-5.247 3.03zM188.221 105.237h-6.059v67.525h6.059v-67.525z"/>
        <path fill="#E535AB" d="M289.836 105.237h-6.059v67.525h6.059v-67.525z"/>
        <path fill="#E535AB" d="M234.641 195.371l2.646 4.584 50.859-29.365-2.646-4.583-50.859 29.364z"/>
        <path fill="#E535AB" d="M297.867 174.733c-3.504 6.096-11.315 8.176-17.41 4.672-6.096-3.504-8.176-11.315-4.672-17.41 3.504-6.096 11.315-8.176 17.41-4.672 6.132 3.54 8.213 11.315 4.672 17.41zM196.178 116.005c-3.504 6.095-11.315 8.176-17.411 4.672-6.095-3.504-8.176-11.315-4.672-17.411 3.504-6.095 11.315-8.175 17.411-4.672 6.095 3.541 8.176 11.315 4.672 17.411zM174.133 174.733c-3.504-6.095-1.424-13.87 4.672-17.41 6.095-3.504 13.87-1.424 17.41 4.672 3.504 6.095 1.424 13.87-4.672 17.41-6.132 3.504-13.906 1.424-17.41-4.672zM275.822 116.005c-3.504-6.096-1.423-13.87 4.672-17.41 6.096-3.504 13.87-1.424 17.411 4.671 3.504 6.096 1.423 13.87-4.672 17.411-6.096 3.504-13.907 1.423-17.411-4.672zM236 210.467c-7.044 0-12.738-5.694-12.738-12.739 0-7.044 5.694-12.738 12.738-12.738 7.045 0 12.739 5.694 12.739 12.738 0 7.008-5.694 12.739-12.739 12.739zM236 93.01c-7.044 0-12.738-5.694-12.738-12.739 0-7.044 5.694-12.738 12.738-12.738 7.045 0 12.739 5.694 12.739 12.739 0 7.044-5.694 12.738-12.739 12.738z"/>
    </g>
    <defs>
        <clipPath id="clip0">
            <path fill="#fff" d="M0 8c0-4.418 3.582-8 8-8h456c4.418 0 8 3.582 8 8v348c0 4.418-3.582 8-8 8H8c-4.418 0-8-3.582-8-8V8z"/>
        </clipPath>
        <clipPath id="clip1">
            <path fill="#fff" d="M0 0H474V364H0z"/>
        </clipPath>
    </defs>
</svg>
